<svg width="46" height="46" viewBox="0 0 46 46" fill="none" xmlns="http://www.w3.org/2000/svg">
<path d="M23 23V34.5C29.3378 34.5 34.5 39.6367 34.5 46H46C46 33.2989 35.7011 23 23 23Z" fill="#F0F1FF"/>
<path d="M23 23V34.5C16.6622 34.5 11.5 39.6367 11.5 46H0C0 33.2989 10.2989 23 23 23Z" fill="#F0F1FF"/>
<path d="M23 23V11.5C16.6622 11.5 11.5 6.36333 11.5 0H0C0 12.7011 10.2989 23 23 23Z" fill="#F0F1FF"/>
<path d="M23 23V11.5C29.3378 11.5 34.5 6.36333 34.5 0H46C46 12.7011 35.7011 23 23 23Z" fill="#F0F1FF"/>
</svg>
