<svg width="290" height="56" viewBox="0 0 290 56" fill="none" xmlns="http://www.w3.org/2000/svg">
<g clip-path="url(#clip0_13_554)">
<path d="M17.9986 15.5347L35.5997 10.3491L30.464 28.0001L35.5997 45.6012L17.9986 40.4655L0.347656 45.6012L5.53325 28.0001L0.347656 10.3491L17.9986 15.5347Z" fill="#669AFF"/>
</g>
<path d="M61.6536 42.56C59.7336 42.56 57.9869 42.1333 56.4136 41.28C54.8669 40.4 53.6269 39.1333 52.6936 37.48C51.7869 35.8 51.3336 33.76 51.3336 31.36V24.64C51.3336 21.04 52.3469 18.28 54.3736 16.36C56.4003 14.4133 59.1469 13.44 62.6136 13.44C66.0536 13.44 68.7069 14.36 70.5736 16.2C72.4669 18.0133 73.4136 20.48 73.4136 23.6V23.76H68.2136V23.44C68.2136 22.4533 68.0003 21.56 67.5736 20.76C67.1736 19.96 66.5603 19.3333 65.7336 18.88C64.9069 18.4 63.8669 18.16 62.6136 18.16C60.7469 18.16 59.2803 18.7333 58.2136 19.88C57.1469 21.0267 56.6136 22.5867 56.6136 24.56V31.44C56.6136 33.3867 57.1469 34.96 58.2136 36.16C59.2803 37.3333 60.7736 37.92 62.6936 37.92C64.6136 37.92 66.0136 37.4133 66.8936 36.4C67.7736 35.3867 68.2136 34.1067 68.2136 32.56V32.16H61.5736V27.68H73.4136V42H68.5336V39.32H67.8136C67.6269 39.7733 67.3203 40.2533 66.8936 40.76C66.4936 41.2667 65.8803 41.6933 65.0536 42.04C64.2269 42.3867 63.0936 42.56 61.6536 42.56ZM84.858 42.56C82.8846 42.56 81.138 42.1467 79.618 41.32C78.1246 40.4667 76.9513 39.28 76.098 37.76C75.2713 36.2133 74.858 34.4 74.858 32.32V31.84C74.858 29.76 75.2713 27.96 76.098 26.44C76.9246 24.8933 78.0846 23.7067 79.578 22.88C81.0713 22.0267 82.8046 21.6 84.778 21.6C86.7246 21.6 88.418 22.04 89.858 22.92C91.298 23.7733 92.418 24.9733 93.218 26.52C94.018 28.04 94.418 29.8133 94.418 31.84V33.56H79.978C80.0313 34.92 80.538 36.0267 81.498 36.88C82.458 37.7333 83.6313 38.16 85.018 38.16C86.4313 38.16 87.4713 37.8533 88.138 37.24C88.8046 36.6267 89.3113 35.9467 89.658 35.2L93.778 37.36C93.4046 38.0533 92.858 38.8133 92.138 39.64C91.4446 40.44 90.5113 41.1333 89.338 41.72C88.1646 42.28 86.6713 42.56 84.858 42.56ZM80.018 29.8H89.298C89.1913 28.6533 88.7246 27.7333 87.898 27.04C87.098 26.3467 86.0446 26 84.738 26C83.378 26 82.298 26.3467 81.498 27.04C80.698 27.7333 80.2046 28.6533 80.018 29.8ZM105.544 42.56C103.571 42.56 101.797 42.16 100.224 41.36C98.6506 40.56 97.4106 39.4 96.5039 37.88C95.5972 36.36 95.1439 34.5333 95.1439 32.4V31.76C95.1439 29.6267 95.5972 27.8 96.5039 26.28C97.4106 24.76 98.6506 23.6 100.224 22.8C101.797 22 103.571 21.6 105.544 21.6C107.517 21.6 109.291 22 110.864 22.8C112.437 23.6 113.677 24.76 114.584 26.28C115.491 27.8 115.944 29.6267 115.944 31.76V32.4C115.944 34.5333 115.491 36.36 114.584 37.88C113.677 39.4 112.437 40.56 110.864 41.36C109.291 42.16 107.517 42.56 105.544 42.56ZM105.544 38.08C107.091 38.08 108.371 37.5867 109.384 36.6C110.397 35.5867 110.904 34.1467 110.904 32.28V31.88C110.904 30.0133 110.397 28.5867 109.384 27.6C108.397 26.5867 107.117 26.08 105.544 26.08C103.997 26.08 102.717 26.5867 101.704 27.6C100.691 28.5867 100.184 30.0133 100.184 31.88V32.28C100.184 34.1467 100.691 35.5867 101.704 36.6C102.717 37.5867 103.997 38.08 105.544 38.08ZM117.636 42V14H127.436L132.276 38.4H132.996L137.836 14H147.636V42H142.516V17.88H141.796L136.996 42H128.276L123.476 17.88H122.756V42H117.636ZM156.43 42.56C155.016 42.56 153.75 42.32 152.63 41.84C151.51 41.3333 150.616 40.6133 149.95 39.68C149.31 38.72 148.99 37.56 148.99 36.2C148.99 34.84 149.31 33.7067 149.95 32.8C150.616 31.8667 151.523 31.1733 152.67 30.72C153.843 30.24 155.176 30 156.67 30H162.11V28.88C162.11 27.9467 161.816 27.1867 161.23 26.6C160.643 25.9867 159.71 25.68 158.43 25.68C157.176 25.68 156.243 25.9733 155.63 26.56C155.016 27.12 154.616 27.8533 154.43 28.76L149.79 27.2C150.11 26.1867 150.616 25.2667 151.31 24.44C152.03 23.5867 152.976 22.9067 154.15 22.4C155.35 21.8667 156.803 21.6 158.51 21.6C161.123 21.6 163.19 22.2533 164.71 23.56C166.23 24.8667 166.99 26.76 166.99 29.24V36.64C166.99 37.44 167.363 37.84 168.11 37.84H169.71V42H166.35C165.363 42 164.55 41.76 163.91 41.28C163.27 40.8 162.95 40.16 162.95 39.36V39.32H162.19C162.083 39.64 161.843 40.0667 161.47 40.6C161.096 41.1067 160.51 41.56 159.71 41.96C158.91 42.36 157.816 42.56 156.43 42.56ZM157.31 38.48C158.723 38.48 159.87 38.0933 160.75 37.32C161.656 36.52 162.11 35.4667 162.11 34.16V33.76H157.03C156.096 33.76 155.363 33.96 154.83 34.36C154.296 34.76 154.03 35.32 154.03 36.04C154.03 36.76 154.31 37.3467 154.87 37.8C155.43 38.2533 156.243 38.48 157.31 38.48ZM170.595 42V22.16H175.555V24.4H176.275C176.568 23.6 177.048 23.0133 177.715 22.64C178.408 22.2667 179.208 22.08 180.115 22.08H182.515V26.56H180.035C178.755 26.56 177.701 26.9067 176.875 27.6C176.048 28.2667 175.635 29.3067 175.635 30.72V42H170.595ZM183.654 42V14H188.694V29.48H189.414L195.974 22.16H202.534L193.374 31.76L202.854 42H196.374L189.414 34.12H188.694V42H183.654ZM211.261 42.56C209.288 42.56 207.541 42.1467 206.021 41.32C204.528 40.4667 203.354 39.28 202.501 37.76C201.674 36.2133 201.261 34.4 201.261 32.32V31.84C201.261 29.76 201.674 27.96 202.501 26.44C203.328 24.8933 204.488 23.7067 205.981 22.88C207.474 22.0267 209.208 21.6 211.181 21.6C213.128 21.6 214.821 22.04 216.261 22.92C217.701 23.7733 218.821 24.9733 219.621 26.52C220.421 28.04 220.821 29.8133 220.821 31.84V33.56H206.381C206.434 34.92 206.941 36.0267 207.901 36.88C208.861 37.7333 210.034 38.16 211.421 38.16C212.834 38.16 213.874 37.8533 214.541 37.24C215.208 36.6267 215.714 35.9467 216.061 35.2L220.181 37.36C219.808 38.0533 219.261 38.8133 218.541 39.64C217.848 40.44 216.914 41.1333 215.741 41.72C214.568 42.28 213.074 42.56 211.261 42.56ZM206.421 29.8H215.701C215.594 28.6533 215.128 27.7333 214.301 27.04C213.501 26.3467 212.448 26 211.141 26C209.781 26 208.701 26.3467 207.901 27.04C207.101 27.7333 206.608 28.6533 206.421 29.8ZM229.443 42C228.136 42 227.07 41.6 226.243 40.8C225.443 39.9733 225.043 38.88 225.043 37.52V26.32H220.083V22.16H225.043V16H230.083V22.16H235.523V26.32H230.083V36.64C230.083 37.44 230.456 37.84 231.203 37.84H235.043V42H229.443ZM237.285 42V22.16H242.325V42H237.285ZM239.805 19.84C238.899 19.84 238.125 19.5467 237.485 18.96C236.872 18.3733 236.565 17.6 236.565 16.64C236.565 15.68 236.872 14.9067 237.485 14.32C238.125 13.7333 238.899 13.44 239.805 13.44C240.739 13.44 241.512 13.7333 242.125 14.32C242.739 14.9067 243.045 15.68 243.045 16.64C243.045 17.6 242.739 18.3733 242.125 18.96C241.512 19.5467 240.739 19.84 239.805 19.84ZM245.11 42V22.16H250.07V24.76H250.79C251.11 24.0667 251.71 23.4133 252.59 22.8C253.47 22.16 254.803 21.84 256.59 21.84C258.137 21.84 259.483 22.2 260.63 22.92C261.803 23.6133 262.71 24.5867 263.35 25.84C263.99 27.0667 264.31 28.5067 264.31 30.16V42H259.27V30.56C259.27 29.0667 258.897 27.9467 258.15 27.2C257.43 26.4533 256.39 26.08 255.03 26.08C253.483 26.08 252.283 26.6 251.43 27.64C250.577 28.6533 250.15 30.08 250.15 31.92V42H245.11ZM265.999 32.16V31.52C265.999 29.44 266.412 27.6667 267.239 26.2C268.065 24.7067 269.159 23.5733 270.519 22.8C271.905 22 273.412 21.6 275.039 21.6C276.852 21.6 278.225 21.92 279.159 22.56C280.092 23.2 280.772 23.8667 281.199 24.56H281.919V22.16H286.879V45.52C286.879 46.88 286.479 47.96 285.679 48.76C284.879 49.5867 283.812 50 282.479 50H269.199V45.6H280.719C281.465 45.6 281.839 45.2 281.839 44.4V39.24H281.119C280.852 39.6667 280.479 40.1067 279.999 40.56C279.519 40.9867 278.879 41.3467 278.079 41.64C277.279 41.9333 276.265 42.08 275.039 42.08C273.412 42.08 271.905 41.6933 270.519 40.92C269.159 40.12 268.065 38.9867 267.239 37.52C266.412 36.0267 265.999 34.24 265.999 32.16ZM276.479 37.68C278.025 37.68 279.319 37.1867 280.359 36.2C281.399 35.2133 281.919 33.8267 281.919 32.04V31.64C281.919 29.8267 281.399 28.44 280.359 27.48C279.345 26.4933 278.052 26 276.479 26C274.932 26 273.639 26.4933 272.599 27.48C271.559 28.44 271.039 29.8267 271.039 31.64V32.04C271.039 33.8267 271.559 35.2133 272.599 36.2C273.639 37.1867 274.932 37.68 276.479 37.68Z" fill="black"/>
<defs>
<clipPath id="clip0_13_554">
<rect width="36" height="36" fill="white" transform="translate(0 10)"/>
</clipPath>
</defs>
</svg>
