<svg width="245" height="33" viewBox="0 0 245 33" fill="none" xmlns="http://www.w3.org/2000/svg">
<g clip-path="url(#clip0_13_941)">
<path d="M14.7572 5.95854L29.1885 1.78125L24.9777 16.0001L29.1885 30.1788L14.7572 26.0416L0.285034 30.1788L4.53675 16.0001L0.285034 1.78125L14.7572 5.95854Z" fill="white"/>
</g>
<path d="M46.4902 25.9856C44.8251 25.9856 43.3104 25.6156 41.9459 24.8756C40.6046 24.1124 39.5293 23.014 38.7199 21.5802C37.9336 20.1232 37.5405 18.3541 37.5405 16.2728V10.4451C37.5405 7.32307 38.4192 4.92954 40.1768 3.26448C41.9344 1.57629 44.3163 0.732197 47.3227 0.732197C50.3059 0.732197 52.607 1.53004 54.2258 3.12572C55.8677 4.69828 56.6887 6.83743 56.6887 9.54315V9.68191H52.1791V9.4044C52.1791 8.54874 51.9941 7.77402 51.6241 7.08025C51.2772 6.38647 50.7453 5.84301 50.0284 5.44988C49.3115 5.03361 48.4096 4.82548 47.3227 4.82548C45.7039 4.82548 44.432 5.32268 43.5069 6.31709C42.5819 7.31151 42.1194 8.66437 42.1194 10.3757V16.3422C42.1194 18.0303 42.5819 19.3948 43.5069 20.4354C44.432 21.453 45.727 21.9617 47.3921 21.9617C49.0571 21.9617 50.2713 21.5224 51.0344 20.6436C51.7976 19.7648 52.1791 18.6547 52.1791 17.3134V16.9666H46.4208V13.0814H56.6887V25.5H52.4566V23.1759H51.8322C51.6704 23.569 51.4044 23.9853 51.0344 24.4246C50.6875 24.864 50.1556 25.2341 49.4387 25.5347C48.7218 25.8353 47.739 25.9856 46.4902 25.9856ZM66.6135 25.9856C64.9022 25.9856 63.3874 25.6272 62.0692 24.9103C60.7742 24.1703 59.7567 23.1412 59.0166 21.823C58.2997 20.4817 57.9413 18.9091 57.9413 17.1053V16.689C57.9413 14.8852 58.2997 13.3242 59.0166 12.0061C59.7335 10.6648 60.7395 9.63566 62.0345 8.91875C63.3296 8.17873 64.8328 7.80871 66.5441 7.80871C68.2323 7.80871 69.7008 8.19029 70.9496 8.95344C72.1984 9.69347 73.1697 10.7341 73.8634 12.0754C74.5572 13.3936 74.9041 14.9315 74.9041 16.689V18.1807H62.3814C62.4277 19.3601 62.8671 20.3198 63.6996 21.0598C64.5321 21.7999 65.5497 22.1699 66.7522 22.1699C67.9779 22.1699 68.8798 21.9039 69.458 21.372C70.0361 20.8401 70.4755 20.2504 70.7761 19.6029L74.3491 21.4761C74.0253 22.0774 73.5512 22.7365 72.9268 23.4534C72.3256 24.1471 71.5162 24.7484 70.4986 25.2572C69.4811 25.7428 68.186 25.9856 66.6135 25.9856ZM62.4161 14.9199H70.4639C70.3714 13.9255 69.9667 13.1277 69.2498 12.5264C68.556 11.9251 67.6426 11.6245 66.5094 11.6245C65.33 11.6245 64.3934 11.9251 63.6996 12.5264C63.0058 13.1277 62.578 13.9255 62.4161 14.9199ZM84.5527 25.9856C82.8414 25.9856 81.3035 25.6388 79.9391 24.945C78.5747 24.2512 77.4993 23.2452 76.7131 21.9271C75.9268 20.6089 75.5336 19.0248 75.5336 17.1747V16.6197C75.5336 14.7696 75.9268 13.1855 76.7131 11.8673C77.4993 10.5491 78.5747 9.54315 79.9391 8.84938C81.3035 8.1556 82.8414 7.80871 84.5527 7.80871C86.264 7.80871 87.8019 8.1556 89.1663 8.84938C90.5308 9.54315 91.6061 10.5491 92.3924 11.8673C93.1787 13.1855 93.5718 14.7696 93.5718 16.6197V17.1747C93.5718 19.0248 93.1787 20.6089 92.3924 21.9271C91.6061 23.2452 90.5308 24.2512 89.1663 24.945C87.8019 25.6388 86.264 25.9856 84.5527 25.9856ZM84.5527 22.1005C85.894 22.1005 87.0041 21.6727 87.8829 20.817C88.7616 19.9382 89.201 18.6894 89.201 17.0706V16.7237C89.201 15.1049 88.7616 13.8677 87.8829 13.012C87.0272 12.1332 85.9172 11.6939 84.5527 11.6939C83.2114 11.6939 82.1014 12.1332 81.2226 13.012C80.3438 13.8677 79.9044 15.1049 79.9044 16.7237V17.0706C79.9044 18.6894 80.3438 19.9382 81.2226 20.817C82.1014 21.6727 83.2114 22.1005 84.5527 22.1005ZM95.0393 25.5V1.21784H103.538L107.735 22.378H108.36L112.557 1.21784H121.056V25.5H116.616V4.58265H115.991L111.829 25.5H104.267L100.104 4.58265H99.4795V25.5H95.0393ZM128.682 25.9856C127.456 25.9856 126.358 25.7775 125.386 25.3612C124.415 24.9219 123.64 24.2975 123.062 23.488C122.507 22.6555 122.23 21.6495 122.23 20.4701C122.23 19.2907 122.507 18.3079 123.062 17.5216C123.64 16.7122 124.427 16.1109 125.421 15.7178C126.439 15.3015 127.595 15.0934 128.89 15.0934H133.608V14.1221C133.608 13.3127 133.353 12.6536 132.844 12.1448C132.336 11.6129 131.526 11.347 130.416 11.347C129.329 11.347 128.52 11.6014 127.988 12.1101C127.456 12.5958 127.109 13.2317 126.947 14.018L122.923 12.6651C123.201 11.7864 123.64 10.9885 124.242 10.2716C124.866 9.53159 125.687 8.94188 126.704 8.50249C127.745 8.03997 129.006 7.80871 130.486 7.80871C132.752 7.80871 134.544 8.3753 135.862 9.50846C137.181 10.6416 137.84 12.2836 137.84 14.4343V20.8517C137.84 21.5455 138.163 21.8924 138.811 21.8924H140.198V25.5H137.285C136.429 25.5 135.724 25.2919 135.169 24.8756C134.614 24.4593 134.336 23.9043 134.336 23.2105V23.1759H133.677C133.584 23.4534 133.376 23.8234 133.053 24.2859C132.729 24.7253 132.22 25.1184 131.526 25.4653C130.832 25.8122 129.884 25.9856 128.682 25.9856ZM129.445 22.4474C130.671 22.4474 131.665 22.1121 132.428 21.4414C133.214 20.7476 133.608 19.8342 133.608 18.701V18.3541H129.202C128.393 18.3541 127.757 18.5276 127.294 18.8744C126.832 19.2213 126.6 19.707 126.6 20.3314C126.6 20.9558 126.843 21.4645 127.329 21.8577C127.815 22.2508 128.52 22.4474 129.445 22.4474ZM140.966 25.5V8.29436H145.267V10.2369H145.892C146.146 9.54315 146.562 9.03438 147.141 8.71062C147.742 8.38686 148.436 8.22498 149.222 8.22498H151.303V12.1101H149.152C148.042 12.1101 147.129 12.4108 146.412 13.012C145.695 13.5902 145.337 14.4921 145.337 15.7178V25.5H140.966ZM152.291 25.5V1.21784H156.662V14.6424H157.286L162.975 8.29436H168.664L160.721 16.6197L168.942 25.5H163.322L157.286 18.6663H156.662V25.5H152.291ZM176.233 25.9856C174.521 25.9856 173.007 25.6272 171.689 24.9103C170.394 24.1703 169.376 23.1412 168.636 21.823C167.919 20.4817 167.561 18.9091 167.561 17.1053V16.689C167.561 14.8852 167.919 13.3242 168.636 12.0061C169.353 10.6648 170.359 9.63566 171.654 8.91875C172.949 8.17873 174.452 7.80871 176.163 7.80871C177.852 7.80871 179.32 8.19029 180.569 8.95344C181.818 9.69347 182.789 10.7341 183.483 12.0754C184.177 13.3936 184.523 14.9315 184.523 16.689V18.1807H172.001C172.047 19.3601 172.486 20.3198 173.319 21.0598C174.151 21.7999 175.169 22.1699 176.372 22.1699C177.597 22.1699 178.499 21.9039 179.077 21.372C179.655 20.8401 180.095 20.2504 180.395 19.6029L183.968 21.4761C183.645 22.0774 183.171 22.7365 182.546 23.4534C181.945 24.1471 181.135 24.7484 180.118 25.2572C179.1 25.7428 177.805 25.9856 176.233 25.9856ZM172.035 14.9199H180.083C179.991 13.9255 179.586 13.1277 178.869 12.5264C178.175 11.9251 177.262 11.6245 176.129 11.6245C174.949 11.6245 174.013 11.9251 173.319 12.5264C172.625 13.1277 172.197 13.9255 172.035 14.9199ZM192 25.5C190.867 25.5 189.942 25.1531 189.225 24.4593C188.532 23.7424 188.185 22.7943 188.185 21.6149V11.902H183.883V8.29436H188.185V2.95228H192.555V8.29436H197.273V11.902H192.555V20.8517C192.555 21.5455 192.879 21.8924 193.527 21.8924H196.857V25.5H192ZM198.801 25.5V8.29436H203.172V25.5H198.801ZM200.987 6.28241C200.2 6.28241 199.53 6.02802 198.975 5.51925C198.443 5.01048 198.177 4.33983 198.177 3.5073C198.177 2.67477 198.443 2.00412 198.975 1.49535C199.53 0.986582 200.2 0.732197 200.987 0.732197C201.796 0.732197 202.467 0.986582 202.999 1.49535C203.531 2.00412 203.797 2.67477 203.797 3.5073C203.797 4.33983 203.531 5.01048 202.999 5.51925C202.467 6.02802 201.796 6.28241 200.987 6.28241ZM205.587 25.5V8.29436H209.889V10.5491H210.513C210.791 9.94786 211.311 9.38127 212.074 8.84938C212.837 8.29436 213.994 8.01685 215.543 8.01685C216.884 8.01685 218.052 8.32904 219.047 8.95344C220.064 9.55472 220.85 10.3988 221.405 11.4857C221.96 12.5495 222.238 13.7983 222.238 15.2321V25.5H217.867V15.579C217.867 14.284 217.543 13.3127 216.896 12.6651C216.272 12.0176 215.37 11.6939 214.19 11.6939C212.849 11.6939 211.808 12.1448 211.068 13.0467C210.328 13.9255 209.958 15.1627 209.958 16.7584V25.5H205.587ZM223.702 16.9666V16.4115C223.702 14.6077 224.061 13.0698 224.778 11.7979C225.494 10.5029 226.443 9.52003 227.622 8.84938C228.825 8.1556 230.131 7.80871 231.542 7.80871C233.114 7.80871 234.305 8.08622 235.115 8.64124C235.924 9.19626 236.514 9.77441 236.884 10.3757H237.508V8.29436H241.81V28.5526C241.81 29.732 241.463 30.6686 240.769 31.3624C240.075 32.0793 239.15 32.4378 237.994 32.4378H226.477V28.622H236.468C237.115 28.622 237.439 28.2751 237.439 27.5813V23.1065H236.815C236.583 23.4765 236.26 23.8581 235.843 24.2512C235.427 24.6212 234.872 24.9334 234.178 25.1878C233.484 25.4422 232.606 25.5694 231.542 25.5694C230.131 25.5694 228.825 25.2341 227.622 24.5634C226.443 23.8696 225.494 22.8868 224.778 21.6149C224.061 20.3198 223.702 18.7704 223.702 16.9666ZM232.791 21.7536C234.132 21.7536 235.254 21.3258 236.156 20.4701C237.057 19.6145 237.508 18.4119 237.508 16.8625V16.5156C237.508 14.943 237.057 13.7405 236.156 12.908C235.277 12.0523 234.155 11.6245 232.791 11.6245C231.449 11.6245 230.328 12.0523 229.426 12.908C228.524 13.7405 228.073 14.943 228.073 16.5156V16.8625C228.073 18.4119 228.524 19.6145 229.426 20.4701C230.328 21.3258 231.449 21.7536 232.791 21.7536Z" fill="white"/>
<defs>
<clipPath id="clip0_13_941">
<rect width="29.5167" height="29" fill="white" transform="translate(0 1.5)"/>
</clipPath>
</defs>
</svg>
