<svg width="26" height="26" viewBox="0 0 26 26" fill="none" xmlns="http://www.w3.org/2000/svg">
<path d="M13 0V6.5C9.41778 6.5 6.5 9.40333 6.5 13H0C0 5.82111 5.82111 0 13 0Z" fill="#1C1548"/>
<path d="M0 26V19.5C3.58222 19.5 6.5 16.5967 6.5 13H13C13 20.1789 7.17889 26 0 26Z" fill="#424BD1"/>
<path d="M26 0V6.5C22.4178 6.5 19.5 9.40333 19.5 13H13C13 5.82111 18.8211 0 26 0Z" fill="#1C1548"/>
<path d="M13 26V19.5C16.5822 19.5 19.5 16.5967 19.5 13H26C26 20.1789 20.1789 26 13 26Z" fill="#424BD1"/>
</svg>
