<svg width="174" height="26" viewBox="0 0 174 26" fill="none" xmlns="http://www.w3.org/2000/svg">
<path d="M13.0001 0V6.5C9.4179 6.5 6.50012 9.40333 6.50012 13H0.00012207C0.00012207 5.82111 5.82123 0 13.0001 0Z" fill="#1C1548"/>
<path d="M0.00012207 26V19.5C3.58234 19.5 6.50012 16.5967 6.50012 13H13.0001C13.0001 20.1789 7.17901 26 0.00012207 26Z" fill="#424BD1"/>
<path d="M26.0001 0V6.5C22.4179 6.5 19.5001 9.40333 19.5001 13H13.0001C13.0001 5.82111 18.8212 0 26.0001 0Z" fill="#1C1548"/>
<path d="M13.0001 26V19.5C16.5823 19.5 19.5001 16.5967 19.5001 13H26.0001C26.0001 20.1789 20.179 26 13.0001 26Z" fill="#424BD1"/>
<path d="M37.7901 10.3245C37.7901 7.73157 39.9373 5.92871 43.0569 5.92871C46.0549 5.92871 47.959 7.58977 48.0401 10.2637H45.4472C45.3864 8.9875 44.4749 8.23799 43.0164 8.23799C41.4161 8.23799 40.383 9.00776 40.383 10.2434C40.383 11.2968 40.9502 11.8842 42.1858 12.1678L44.5154 12.6743C47.0475 13.2212 48.2832 14.5176 48.2832 16.7256C48.2832 19.4806 46.1359 21.2632 42.8746 21.2632C39.7145 21.2632 37.6483 19.5818 37.5875 16.9282H40.1804C40.2007 18.1841 41.2135 18.9336 42.8746 18.9336C44.5964 18.9336 45.6903 18.1841 45.6903 16.9485C45.6903 15.9559 45.1839 15.3684 43.9684 15.1051L41.6186 14.5784C39.1068 14.0315 37.7901 12.5932 37.7901 10.3245Z" fill="#1C1548"/>
<path d="M49.1346 8.58236V6.19205H60.3974V8.58236H56.0624V20.9998H53.4696V8.58236H49.1346Z" fill="#1C1548"/>
<path d="M64.9723 20.9998H62.3794V6.19205H68.0311C71.3937 6.19205 73.3586 7.89363 73.3586 10.8106C73.3586 12.7958 72.4268 14.2138 70.6847 14.9228L73.5004 20.9998H70.6645L68.1526 15.4697H64.9723V20.9998ZM64.9723 8.50133V13.1807H68.0311C69.6719 13.1807 70.6442 12.3096 70.6442 10.8106C70.6442 9.33187 69.6719 8.50133 68.0311 8.50133H64.9723Z" fill="#1C1548"/>
<path d="M77.2261 20.9998H74.532L79.8798 6.19205H82.5334L87.8812 20.9998H85.1466L83.9514 17.5764H78.4213L77.2261 20.9998ZM80.8724 10.6081L79.191 15.3887H83.2019L81.5003 10.6081C81.3788 10.2232 81.237 9.77752 81.1965 9.47367C81.1357 9.75726 81.0142 10.2029 80.8724 10.6081Z" fill="#1C1548"/>
<path d="M87.1162 8.58236V6.19205H98.3791V8.58236H94.0441V20.9998H91.4512V8.58236H87.1162Z" fill="#1C1548"/>
<path d="M109.558 20.9998H100.361V6.19205H109.558V8.58236H102.954V12.3907H108.869V14.6797H102.954V18.6095H109.558V20.9998Z" fill="#1C1548"/>
<path d="M118.851 8.37979C115.914 8.37979 114.232 10.5068 114.232 13.7074C114.232 17.0092 116.137 18.8121 118.871 18.8121C121.444 18.8121 123.004 17.3941 123.004 15.024V14.9633H118.527V12.6743H125.414V20.9998H123.226L123.064 19.2983C122.254 20.4326 120.573 21.2227 118.567 21.2227C114.415 21.2227 111.518 18.2044 111.518 13.6466C111.518 9.14955 114.455 5.94897 118.912 5.94897C122.295 5.94897 124.908 7.91388 125.333 10.9322H122.599C122.133 9.19007 120.634 8.37979 118.851 8.37979Z" fill="#1C1548"/>
<path d="M138.024 20.9998H128.828V6.19205H138.024V8.58236H131.42V12.3907H137.335V14.6797H131.42V18.6095H138.024V20.9998Z" fill="#1C1548"/>
<path d="M143.388 20.9998H140.835V6.19205H143.408L150.356 16.6851V6.19205H152.908V20.9998H150.356L143.388 10.5068V20.9998Z" fill="#1C1548"/>
<path d="M158.779 6.19205V20.9998H156.186V6.19205H158.779Z" fill="#1C1548"/>
<path d="M165.789 13.6061L160.866 6.19205H163.945L165.748 8.8457C166.356 9.75726 166.862 10.6081 167.409 11.6209L170.853 6.19205H173.871L169.03 13.5858L173.891 20.9998H170.833L169.172 18.5487C168.523 17.5562 167.997 16.6649 167.409 15.5912L163.804 20.9998H160.765L165.789 13.6061Z" fill="#1C1548"/>
</svg>
