<svg width="54" height="54" viewBox="0 0 54 54" fill="none" xmlns="http://www.w3.org/2000/svg">
<rect x="0.5" y="0.5" width="53" height="53" rx="17.5" fill="white"/>
<path d="M21.1667 27V37.5M32.8333 27V37.5" stroke="#424BD1" stroke-width="2" stroke-linecap="round" stroke-linejoin="round"/>
<path d="M16.5 27H37.5" stroke="#424BD1" stroke-width="2" stroke-linecap="round" stroke-linejoin="round"/>
<path d="M15.9167 29.0417C15.9167 24.7794 15.9167 22.6482 17.2151 21.3241C18.5136 20 20.6035 20 24.7833 20H29.2167C33.3964 20 35.4863 20 36.7848 21.3241C38.0833 22.6482 38.0833 24.7794 38.0833 29.0417C38.0833 33.3039 38.0833 35.4351 36.7848 36.7592C35.4863 38.0833 33.3964 38.0833 29.2167 38.0833H24.7833C20.6035 38.0833 18.5136 38.0833 17.2151 36.7592C15.9167 35.4351 15.9167 33.3039 15.9167 29.0417Z" stroke="#424BD1" stroke-width="2" stroke-linecap="round"/>
<path d="M32.25 20L32.1341 19.6394C31.5566 17.8427 31.2678 16.9443 30.5804 16.4305C29.8929 15.9167 28.9798 15.9167 27.1535 15.9167H26.8465C25.0202 15.9167 24.1071 15.9167 23.4196 16.4305C22.7322 16.9443 22.4434 17.8427 21.8659 19.6394L21.75 20" stroke="#424BD1" stroke-width="2"/>
<rect x="0.5" y="0.5" width="53" height="53" rx="17.5" stroke="#F0F0F0"/>
</svg>
