<svg width="54" height="54" viewBox="0 0 54 54" fill="none" xmlns="http://www.w3.org/2000/svg">
<rect x="0.5" y="0.5" width="53" height="53" rx="17.5" fill="white"/>
<path d="M19.7459 17.8789C20.5017 17.2971 20.8796 17.0061 21.3158 16.8188C21.5136 16.7338 21.7193 16.6652 21.9303 16.6136C22.3959 16.5 22.8895 16.5 23.8767 16.5H30.1233C31.1105 16.5 31.6041 16.5 32.0696 16.6136C32.2807 16.6652 32.4863 16.7338 32.6841 16.8188C33.1203 17.0061 33.4982 17.2971 34.254 17.8789C36.7585 19.8069 38.0107 20.7709 38.44 22.0192C38.6309 22.5745 38.7023 23.1585 38.6501 23.7387C38.5328 25.0431 37.5442 26.2369 35.5671 28.6246L30.9081 34.2512C29.1147 36.4171 28.2179 37.5 27 37.5C25.782 37.5 24.8853 36.4171 23.0919 34.2512L18.4328 28.6246C16.4557 26.2369 15.4672 25.0431 15.3499 23.7387C15.2977 23.1585 15.3691 22.5745 15.56 22.0192C15.9893 20.7709 17.2415 19.8069 19.7459 17.8789Z" stroke="#424BD1" stroke-width="2"/>
<path d="M24.6666 22.9167H29.3333" stroke="#424BD1" stroke-width="2" stroke-linecap="round" stroke-linejoin="round"/>
<rect x="0.5" y="0.5" width="53" height="53" rx="17.5" stroke="#F0F0F0"/>
</svg>
