<svg width="54" height="54" viewBox="0 0 54 54" fill="none" xmlns="http://www.w3.org/2000/svg">
<rect x="0.5" y="0.5" width="53" height="53" rx="17.5" fill="white"/>
<g clip-path="url(#clip0_1_3550)">
<g clip-path="url(#clip1_1_3550)">
<g clip-path="url(#clip2_1_3550)">
<mask id="mask0_1_3550" style="mask-type:luminance" maskUnits="userSpaceOnUse" x="13" y="13" width="28" height="28">
<path d="M41 13H13V41H41V13Z" fill="white"/>
</mask>
<g mask="url(#mask0_1_3550)">
<path d="M37.4845 18.3481L29.2535 13.6012C27.8636 12.7996 26.1365 12.7996 24.7465 13.6012L16.5156 18.3481C15.1229 19.1512 14.2578 20.6489 14.2578 22.2567V31.7432C14.2578 33.351 15.1229 34.8488 16.5155 35.6518L24.7465 40.3988C26.1367 41.2005 27.8637 41.2003 29.2535 40.3988L37.4844 35.6518C38.8771 34.8488 39.7422 33.351 39.7422 31.7432V22.2567C39.7422 20.649 38.8771 19.1513 37.4845 18.3481ZM37.5547 31.7432C37.5547 32.5714 37.1091 33.3429 36.3917 33.7565L28.1607 38.5035C27.4447 38.9165 26.5552 38.9165 25.8392 38.5035L17.6082 33.7565C16.8909 33.3428 16.4453 32.5714 16.4453 31.7432V22.2567C16.4453 21.4286 16.8909 20.6571 17.6083 20.2435L25.8392 15.4965C26.5553 15.0835 27.445 15.0837 28.1608 15.4965L36.3918 20.2434C37.1091 20.6571 37.5547 21.4285 37.5547 22.2567V31.7432Z" fill="#424BD1"/>
<path d="M25.9607 26.1648L21.8984 22.727C21.4374 22.3368 20.7472 22.3942 20.357 22.8555C19.9668 23.3167 20.0243 24.0069 20.4854 24.3972L23.5609 27L20.4854 29.6027C20.0243 29.993 19.9668 30.6832 20.357 31.1444C20.7481 31.6066 21.4385 31.6621 21.8984 31.2728L25.9607 27.835C26.4775 27.3977 26.476 26.601 25.9607 26.1648Z" fill="#424BD1"/>
<path d="M33.0154 30H28.0938C27.4897 30 27 30.4897 27 31.0939C27 31.6981 27.4897 32.1878 28.0938 32.1878H33.0154C33.6194 32.1878 34.1091 31.6981 34.1091 31.0939C34.1091 30.4897 33.6194 30 33.0154 30Z" fill="#424BD1"/>
</g>
</g>
</g>
</g>
<rect x="0.5" y="0.5" width="53" height="53" rx="17.5" stroke="#F0F0F0"/>
<defs>
<clipPath id="clip0_1_3550">
<rect width="28" height="28" fill="white" transform="translate(13 13)"/>
</clipPath>
<clipPath id="clip1_1_3550">
<rect width="28" height="28" fill="white" transform="translate(13 13)"/>
</clipPath>
<clipPath id="clip2_1_3550">
<rect width="28" height="28" fill="white" transform="translate(13 13)"/>
</clipPath>
</defs>
</svg>
