<svg width="54" height="54" viewBox="0 0 54 54" fill="none" xmlns="http://www.w3.org/2000/svg">
<rect x="0.5" y="0.5" width="53" height="53" rx="17.5" fill="white"/>
<path d="M15.9167 22.3333C15.9167 19.0335 15.9167 17.3836 16.9418 16.3584C17.9669 15.3333 19.6169 15.3333 22.9167 15.3333H31.0834C34.3832 15.3333 36.0331 15.3333 37.0582 16.3584C38.0834 17.3836 38.0834 19.0335 38.0834 22.3333V25.8333C38.0834 29.1331 38.0834 30.7831 37.0582 31.8082C36.0331 32.8333 34.3832 32.8333 31.0834 32.8333H22.9167C19.6169 32.8333 17.9669 32.8333 16.9418 31.8082C15.9167 30.7831 15.9167 29.1331 15.9167 25.8333V22.3333Z" stroke="#424BD1" stroke-width="2"/>
<path d="M22.3334 24.3454L23.146 23.2785C24.1711 21.9326 25.984 22.0399 26.8902 23.5C27.7659 24.911 29.4999 25.0677 30.547 23.8305L31.6667 22.5073" stroke="#424BD1" stroke-width="2" stroke-linecap="round" stroke-linejoin="round"/>
<path d="M26 38.6666C26 39.2189 26.4477 39.6666 27 39.6666C27.5523 39.6666 28 39.2189 28 38.6666L26 38.6666ZM26 32.8333L26 38.6666L28 38.6666L28 32.8333L26 32.8333Z" fill="#424BD1"/>
<path d="M22.9167 38.6666L23.2996 38.2837C23.974 37.6092 24.3112 37.2719 24.7401 37.0943C25.1689 36.9166 25.6458 36.9166 26.5996 36.9166H27.4001C28.3539 36.9166 28.8308 36.9166 29.2596 37.0942C29.6884 37.2719 30.0256 37.6091 30.7 38.2835L31.0831 38.6666" stroke="#424BD1" stroke-width="2" stroke-linecap="round" stroke-linejoin="round"/>
<rect x="0.5" y="0.5" width="53" height="53" rx="17.5" stroke="#F0F0F0"/>
</svg>
